# xmcd
#
# Track frame offsets:
#	150
#	16113
#	28193
#	47153
#	63745
#	80452
#	98503
#	114334
#	130012
#	145517
#	161325
#	178322
#	193441
#	211473
#	225061
#	240550
#
# Disc length: 3352 seconds
#
# Revision: 0
# Processed by: cddbd v1.5.2PL0 Copyright (c) Steve Scherf et al.
# Submitted via: audiograbber 1.83.01
#
DISCID=cd0d1610
DTITLE=COUNTRY IS GROOT - DISC 2
DYEAR=1900
DGENRE=Country
TTITLE0=LIANIE MAY - BOERMEISIE
TTITLE1=THEUNS JORDAAN - MORELIEDJIE
TTITLE2=ROBBIE WESSELS - SAL EK OOIT WEET
TTITLE3=JUANITA DU PLESSIS - JY IS...
TTITLE4=BOBBY VAN JAARSVELD - JY KON NIE BLY NIE (PRETORIA)
TTITLE5=ANDRIETTE - DINK AAN MY
TTITLE6=BOK VAN BLERK - KLAAR MET MY
TTITLE7=THEUNS JORDAAN and JUANITA DU PLESSIS - BRING JOU HART
TTITLE8=EDEN - HONKY TONK SKADONKADONK
TTITLE9=LAINIE MAY - EK KOM HUISTOE
TTITLE10=GERHARD STEYN - WYS MY WAAR JOU HART NOU Lê
TTITLE11=NIANELL - SAL JY ONTHOU
TTITLE12=EDEN - MAAK JOU MYNE
TTITLE13=GULLAUME - EK IS JAMMER
TTITLE14=VAUGHAN GARDINER - DIS HOE JY ...
TTITLE15=ETIENNE STEYN - 'N LIEFDE SOOS JOUNE
EXTD=
EXTT0=
EXTT1=
EXTT2=
EXTT3=
EXTT4=
EXTT5=
EXTT6=
EXTT7=
EXTT8=
EXTT9=
EXTT10=
EXTT11=
EXTT12=
EXTT13=
EXTT14=
EXTT15=
PLAYORDER=
